:FULLY-SPECIFIED
:FORCE-ALL-JOINTS-BE-3DOF
:DEGREES
1325
root -1.5382 14.8501 6.94658 351.195 23.5837 362.034
lfemur -3.79215 5.79481 -18.9422
ltibia 58.1253 0 0
lfoot -28.8744 24.2429 0
ltoes -14.8989 0 0
rfemur -48.5832 -5.26365 3.59609
rtibia 41.3995 0 0
rfoot 22.1351 7.7842 0
rtoes 6.46749 0 0
lowerback 13.2421 0.33154 -10.6062
upperback -1.57482 -1.1605 1.0082
thorax -9.03252 0.0115957 7.33748
lowerneck -5.61951 -8.48723 -10.881
upperneck 16.7857 -11.5544 7.28093
head 7.12281 -5.72038 3.16117
lclavicle 6.57453e-14 2.76872e-15 0
lhumerus -27.9333 -51.1682 113.03
lradius 113.727 0 0
lwrist 37.3492 0 0
lhand -13.4931 47.9165 0
lfingers 7.12502 0 0
lthumb 12.6183 -282.469 0
rclavicle 6.57453e-14 2.76872e-15 0
rhumerus 30.679 23.7184 -61.1965
rradius 103.193 0 0
rwrist -30.3352 0 0
rhand -11.9896 -29.4818 0
rfingers 7.12502 0 0
rthumb 14.0636 -58.8174 0
1326
root -1.554 14.8248 7.11666 351.292 23.5172 362.014
lfemur -3.88006 5.80901 -18.9316
ltibia 57.99 0 0
lfoot -28.7321 24.2594 0
ltoes -14.7986 0 0
rfemur -48.4432 -5.31133 3.69229
rtibia 41.5004 0 0
rfoot 21.9337 7.68631 0
rtoes 6.29374 0 0
lowerback 13.2082 0.346769 -10.5641
upperback -1.59117 -1.13405 1.00623
thorax -9.03241 0.0226262 7.30712
lowerneck -5.59293 -8.48347 -10.8683
upperneck 16.7204 -11.5508 7.29163
head 7.09858 -5.71847 3.1645
lclavicle 6.54153e-14 2.72794e-15 0
lhumerus -27.8671 -50.965 112.857
lradius 113.623 0 0
lwrist 37.4739 0 0
lhand -13.5236 47.8885 0
lfingers 7.12502 0 0
lthumb 12.5889 -282.496 0
rclavicle 6.54153e-14 2.72794e-15 0
rhumerus 30.6407 23.6278 -61.1523
rradius 103.064 0 0
rwrist -30.1393 0 0
rhand -12.0939 -29.4913 0
rfingers 7.12502 0 0
rthumb 13.9629 -58.8254 0
1327
root -1.56981 14.7994 7.28675 351.405 23.4358 361.988
lfemur -3.9905 5.82786 -18.9206
ltibia 57.8336 0 0
lfoot -28.5634 24.2767 0
ltoes -14.677 0 0
rfemur -48.273 -5.36545 3.80681
rtibia 41.6159 0 0
rfoot 21.6981 7.56896 0
rtoes 6.08802 0 0
lowerback 13.1679 0.364653 -10.5136
upperback -1.61044 -1.10281 1.00432
thorax -9.03207 0.0356088 7.27129
lowerneck -5.56261 -8.47814 -10.853
upperneck 16.6447 -11.5453 7.30374
head 7.07037 -5.71557 3.16825
lclavicle 6.50228e-14 2.68243e-15 0
lhumerus -27.7766 -50.7293 112.651
lradius 113.501 0 0
lwrist 37.6187 0 0
lhand -13.5607 47.856 0
lfingers 7.12502 0 0
lthumb 12.5531 -282.528 0
rclavicle 6.50228e-14 2.68243e-15 0
rhumerus 30.5871 23.5279 -61.1077
rradius 102.915 0 0
rwrist -29.9185 0 0
rhand -12.2116 -29.5019 0
rfingers 7.12502 0 0
rthumb 13.8493 -58.8342 0
1328
root -1.58561 14.7741 7.45683 351.536 23.3435 361.959
lfemur -4.11463 5.84865 -18.9074
ltibia 57.6526 0 0
lfoot -28.3699 24.2975 0
ltoes -14.5386 0 0
rfemur -48.0796 -5.42851 3.93795
rtibia 41.75 0 0
rfoot 21.4265 7.4349 0
rtoes 5.85198 0 0
lowerback 13.1218 0.385233 -10.456
upperback -1.63258 -1.06693 1.00197
thorax -9.03176 0.0505366 7.23014
lowerneck -5.52736 -8.47237 -10.8355
upperneck 16.5572 -11.5394 7.31787
head 7.0378 -5.7125 3.17263
lclavicle 6.45731e-14 2.62909e-15 0
lhumerus -27.6777 -50.4568 112.415
lradius 113.36 0 0
lwrist 37.7861 0 0
lhand -13.6028 47.8184 0
lfingers 7.12502 0 0
lthumb 12.5123 -282.565 0
rclavicle 6.45731e-14 2.62909e-15 0
rhumerus 30.5289 23.4103 -61.0534
rradius 102.743 0 0
rwrist -29.6606 0 0
rhand -12.349 -29.5144 0
rfingers 7.12502 0 0
rthumb 13.7166 -58.8446 0
1329
root -1.60142 14.7487 7.62691 351.684 23.2444 361.929
lfemur -4.24363 5.86872 -18.89
ltibia 57.4436 0 0
lfoot -28.1534 24.3242 0
ltoes -14.3879 0 0
rfemur -47.8698 -5.50296 4.08402
rtibia 41.9069 0 0
rfoot 21.1174 7.2869 0
rtoes 5.58726 0 0
lowerback 13.0702 0.408551 -10.3925
upperback -1.65756 -1.02656 0.998635
thorax -9.03176 0.0674026 7.1838
lowerneck -5.48596 -8.46734 -10.8165
upperneck 16.4566 -11.5349 7.33458
head 7.00051 -5.71008 3.17786
lclavicle 6.40716e-14 2.56479e-15 0
lhumerus -27.586 -50.1433 112.151
lradius 113.2 0 0
lwrist 37.9783 0 0
lhand -13.6483 47.7751 0
lfingers 7.12502 0 0
lthumb 12.4684 -282.608 0
rclavicle 6.40716e-14 2.56479e-15 0
rhumerus 30.4768 23.2665 -60.9801
rradius 102.545 0 0
rwrist -29.3535 0 0
rhand -12.5126 -29.5293 0
rfingers 7.12502 0 0
rthumb 13.5587 -58.8572 0
1330
root -1.61722 14.7233 7.797 351.852 23.1424 361.9
lfemur -4.36868 5.88538 -18.8664
ltibia 57.2029 0 0
lfoot -27.9155 24.3593 0
ltoes -14.2292 0 0
rfemur -47.6504 -5.59131 4.24329
rtibia 42.0909 0 0
rfoot 20.7692 7.12771 0
rtoes 5.2955 0 0
lowerback 13.0135 0.434649 -10.3243
upperback -1.68535 -0.981845 0.993806
thorax -9.03234 0.0861998 7.13243
lowerneck -5.43722 -8.46418 -10.7965
upperneck 16.3418 -11.5332 7.35446
head 6.95813 -5.70915 3.18417
lclavicle 6.35234e-14 2.48641e-15 0
lhumerus -27.5172 -49.7844 111.862
lradius 113.021 0 0
lwrist 38.1978 0 0
lhand -13.6955 47.7255 0
lfingers 7.12502 0 0
lthumb 12.4229 -282.657 0
rclavicle 6.35234e-14 2.48641e-15 0
rhumerus 30.4414 23.088 -60.8784
rradius 102.319 0 0
rwrist -28.9851 0 0
rhand -12.7087 -29.5472 0
rfingers 7.12502 0 0
rthumb 13.3694 -58.8727 0
1331
root -1.63302 14.698 7.96708 352.039 23.0416 361.872
lfemur -4.48095 5.89595 -18.8347
ltibia 56.9272 0 0
lfoot -27.658 24.4052 0
ltoes -14.067 0 0
rfemur -47.4284 -5.69604 4.41406
rtibia 42.306 0 0
rfoot 20.3801 6.96009 0
rtoes 4.97834 0 0
lowerback 12.9522 0.463569 -10.2528
upperback -1.71589 -0.932932 0.98696
thorax -9.03376 0.106921 7.07618
lowerneck -5.37994 -8.46405 -10.7762
upperneck 16.2114 -11.5361 7.3781
head 6.91027 -5.71052 3.19178
lclavicle 6.29339e-14 2.39083e-15 0
lhumerus -27.4871 -49.3759 111.55
lradius 112.822 0 0
lwrist 38.447 0 0
lhand -13.7426 47.6689 0
lfingers 7.12502 0 0
lthumb 12.3773 -282.714 0
rclavicle 6.29339e-14 2.39083e-15 0
rhumerus 30.4332 22.8664 -60.7392
rradius 102.062 0 0
rwrist -28.5432 0 0
rhand -12.9437 -29.5689 0
rfingers 7.12502 0 0
rthumb 13.1426 -58.8917 0
